<svg width="35" height="35" viewBox="0 0 35 35" fill="none" xmlns="http://www.w3.org/2000/svg">
<g clip-path="url(#clip0_0_254)">
<path d="M17.4999 0C27.1643 0 35 7.83562 35 17.5001C35 27.1645 27.1644 35 17.5001 35C7.83574 35 0 27.1644 0 17.5001C0 7.83574 7.83454 0 17.4999 0Z" fill="#5E5E5E"/>
<path d="M23.5399 7.65405H11.4595C9.36057 7.65405 7.6543 9.36141 7.6543 11.4592V23.5408C7.6543 25.6397 9.36165 27.346 11.4595 27.346H23.5411C25.64 27.346 27.3462 25.6387 27.3462 23.5408V11.4592C27.3461 9.36141 25.6388 7.65405 23.5399 7.65405ZM24.7387 9.8558L25.1696 9.85472V13.1229L21.8775 13.1338L21.8665 9.86565L24.7387 9.8558ZM17.5003 14.2056C20.2314 14.2056 20.7946 16.7693 20.7946 17.501C20.7946 19.3155 19.3159 20.7942 17.5003 20.7942C15.6836 20.7942 14.2059 19.3155 14.2059 17.501C14.2047 16.7693 14.7692 14.2056 17.5003 14.2056ZM25.1882 23.3023C25.1882 24.3425 24.3428 25.1891 23.3004 25.1891H11.6629C10.6216 25.1891 9.77506 24.3436 9.77506 23.3023V15.3081H12.5094C12.2557 15.9326 12.1123 16.7858 12.1123 17.5011C12.1123 20.4696 14.5273 22.8857 17.4969 22.8857C20.4665 22.8857 22.8803 20.4696 22.8803 17.5011C22.8803 16.7858 22.737 15.9326 22.4843 15.3081H25.1858V23.3023H25.1882Z" fill="white"/>
</g>
<defs>
<clipPath id="clip0_0_254">
<rect width="35" height="35" fill="white"/>
</clipPath>
</defs>
</svg>
