<svg width="35" height="35" viewBox="0 0 35 35" fill="none" xmlns="http://www.w3.org/2000/svg">
<g clip-path="url(#clip0_0_233)">
<path d="M17.5 35C27.165 35 35 27.165 35 17.5C35 7.83502 27.165 0 17.5 0C7.83502 0 0 7.83502 0 17.5C0 27.165 7.83502 35 17.5 35Z" fill="#5E5E5E"/>
<path fill-rule="evenodd" clip-rule="evenodd" d="M16.8389 25.1753H18.2124C18.2124 25.1753 18.6273 25.1298 18.8391 24.9014C19.0341 24.6918 19.0278 24.2981 19.0278 24.2981C19.0278 24.2981 19.001 22.4551 19.8564 22.1837C20.6996 21.9163 21.7824 23.9649 22.9301 24.7526C23.7979 25.3487 24.4574 25.218 24.4574 25.218L27.5261 25.1753C27.5261 25.1753 29.1314 25.0764 28.3702 23.8142C28.3078 23.711 27.9269 22.8806 26.0886 21.1742C24.1645 19.3882 24.4221 19.6771 26.74 16.5878C28.1516 14.7064 28.7159 13.5578 28.5396 13.0659C28.3715 12.5973 27.3333 12.7212 27.3333 12.7212L23.8781 12.7427C23.8781 12.7427 23.622 12.7077 23.432 12.8213C23.2464 12.9327 23.1269 13.1922 23.1269 13.1922C23.1269 13.1922 22.5801 14.6481 21.8507 15.8862C20.3121 18.4989 19.697 18.6367 19.4455 18.4745C18.8606 18.0964 19.0066 16.9556 19.0066 16.1452C19.0066 13.6133 19.3906 12.5577 18.2589 12.2844C17.8833 12.1936 17.6069 12.1337 16.6464 12.1241C15.4135 12.1113 14.37 12.1278 13.7792 12.4173C13.3861 12.6098 13.0829 13.0387 13.2676 13.0634C13.4959 13.0939 14.0132 13.2028 14.2874 13.5762C14.6414 14.0579 14.629 15.1397 14.629 15.1397C14.629 15.1397 14.8324 18.1201 14.1539 18.4904C13.6881 18.7444 13.0492 18.2259 11.6776 15.8557C10.9747 14.6415 10.4441 13.2995 10.4441 13.2995C10.4441 13.2995 10.3418 13.0487 10.1593 12.9146C9.9378 12.752 9.62834 12.7003 9.62834 12.7003L6.34503 12.7218C6.34503 12.7218 5.85214 12.7355 5.67121 12.9498C5.51024 13.1404 5.65842 13.5347 5.65842 13.5347C5.65842 13.5347 8.22892 19.5486 11.1394 22.5792C13.8082 25.3578 16.8389 25.1753 16.8389 25.1753Z" fill="white"/>
</g>
<defs>
<clipPath id="clip0_0_233">
<rect width="35" height="35" fill="white"/>
</clipPath>
</defs>
</svg>
