<svg width="35" height="35" viewBox="0 0 35 35" fill="none" xmlns="http://www.w3.org/2000/svg">
<g clip-path="url(#clip0_0_228)">
<path d="M17.4999 0C27.1655 0 35 7.83562 35 17.5001C35 27.1645 27.1655 35 17.4999 35C7.83442 35 0 27.1644 0 17.5001C0 7.83574 7.83454 0 17.4999 0Z" fill="#5E5E5E"/>
<path d="M17.0779 14.2198C17.6313 14.2198 18.0646 14.0437 18.3817 13.7933C18.6967 13.5417 18.8543 13.1994 18.8543 12.7597V10.1062C18.8543 9.71574 18.6935 9.39304 18.373 9.14482C18.0503 8.89649 17.6379 8.77298 17.1326 8.77298C16.5803 8.77298 16.1384 8.89 15.8114 9.12512C15.4833 9.36132 15.3192 9.67634 15.3192 10.0756V12.7377C15.3192 13.1751 15.4788 13.5208 15.7982 13.7801C16.1175 14.0393 16.5453 14.2198 17.0779 14.2198ZM16.4994 10.2047C16.4994 10.104 16.5519 10.0232 16.6559 9.95867C16.7609 9.89632 16.8965 9.86568 17.0628 9.86568C17.2443 9.86568 17.3909 9.89632 17.5014 9.95867C17.6131 10.0232 17.6677 10.1042 17.6677 10.2047V12.7269C17.6677 12.8516 17.6131 12.95 17.5036 13.0211C17.3943 13.0912 17.2477 13.1272 17.0628 13.1272C16.8823 13.1272 16.7424 13.0933 16.6449 13.0222C16.5487 12.9532 16.4994 12.8548 16.4994 12.7269V10.2047ZM20.7399 14.2165C20.9345 14.2165 21.1325 14.1049 21.3382 13.9934C21.5461 13.8797 21.7439 13.7134 21.9344 13.4969V14.0864H22.968V8.76529H21.9344V12.8045C21.8381 12.9194 21.731 13.0145 21.6161 13.09C21.4991 13.1643 21.4029 13.2027 21.3274 13.2027C21.2301 13.2027 21.159 13.1753 21.1174 13.1174C21.0737 13.0616 21.0496 12.9708 21.0496 12.8461V8.76637H20.0182V13.2125C20.0182 13.5297 20.0806 13.7671 20.1997 13.9246C20.321 14.0831 20.5003 14.2165 20.7399 14.2165ZM23.7455 16.4161H11.2548C9.26863 16.4161 7.65967 17.9638 7.65967 19.8702V22.7906C7.65967 24.6981 9.26863 26.2458 11.2548 26.2458H23.7454C25.7305 26.2458 27.3406 24.6981 27.3406 22.7906V19.8702C27.3407 17.9637 25.7307 16.4161 23.7455 16.4161ZM13.1131 19.3802H12.0085V23.9543H10.9399V19.3802H9.83522V18.6003H13.1132C13.1131 18.6003 13.1131 19.3802 13.1131 19.3802ZM16.4097 24.0177H15.258V23.543C15.0437 23.7181 14.8238 23.8525 14.5919 23.9423C14.3633 24.0363 14.1402 24.0811 13.9237 24.0811C13.6569 24.0811 13.4578 24.0166 13.3221 23.8865C13.1887 23.7586 13.1198 23.5661 13.1198 23.309V19.6975H14.2715V23.0104C14.2715 23.1133 14.2955 23.1855 14.3416 23.2314C14.3919 23.2783 14.4717 23.2991 14.579 23.2991C14.6621 23.2991 14.7714 23.2696 14.9005 23.2083C15.0306 23.1481 15.1499 23.0716 15.2581 22.9764V19.6963H16.4098C16.4097 19.6963 16.4097 24.0177 16.4097 24.0177ZM20.7693 23.1952C20.7693 23.4785 20.6796 23.6939 20.5014 23.846C20.3253 23.998 20.0651 24.0724 19.7293 24.0724C19.5051 24.0724 19.306 24.0439 19.1331 23.986C18.9593 23.9281 18.7951 23.8383 18.6464 23.7147V24.021H17.4969V18.6003H18.6464V20.3471C18.8018 20.2268 18.9647 20.1328 19.1342 20.0693C19.308 20.0048 19.4831 19.9742 19.6592 19.9742C20.019 19.9742 20.2936 20.0584 20.4828 20.2279C20.6742 20.3985 20.7693 20.649 20.7693 20.976C20.7693 20.9759 20.7693 23.1952 20.7693 23.1952ZM25.151 21.9756H23.0291V22.7566C23.0291 22.9743 23.0641 23.1252 23.1374 23.2105C23.2117 23.2947 23.3375 23.3363 23.5136 23.3363C23.6996 23.3363 23.8265 23.3002 23.9009 23.2291C23.9731 23.1569 24.0125 23.0005 24.0125 22.7555V22.5673H25.1532V22.7795C25.1532 23.2039 25.0165 23.5233 24.7343 23.7387C24.4565 23.9531 24.0408 24.0602 23.4885 24.0602C22.9909 24.0602 22.5994 23.9465 22.3139 23.719C22.0295 23.4938 21.8851 23.1788 21.8851 22.7806V20.919C21.8851 20.5613 22.0426 20.266 22.3576 20.0396C22.6716 19.8144 23.074 19.7017 23.5717 19.7017C24.0792 19.7017 24.4696 19.8067 24.7431 20.0156C25.0154 20.2246 25.1511 20.5263 25.1511 20.918C25.151 20.918 25.151 21.9756 25.151 21.9756ZM12.4941 14.2319H13.799V11.0523L15.3182 6.56799H13.9915L13.1842 9.63273H13.1011L12.2545 6.56799H10.9387L12.494 11.1957C12.4941 11.1957 12.4941 14.2319 12.4941 14.2319ZM19.1222 20.6084L18.8804 20.6478L18.6453 20.7693V23.2608C18.7372 23.3253 18.8279 23.3746 18.9155 23.4019L19.1901 23.4445C19.33 23.4445 19.4318 23.4171 19.4974 23.3592C19.5619 23.3035 19.5958 23.2115 19.5958 23.0858V21.0197C19.5958 20.8829 19.5575 20.7812 19.4766 20.7123C19.3935 20.6435 19.2764 20.6084 19.1222 20.6084Z" fill="white"/>
<path d="M23.575 20.4269C23.3977 20.4269 23.272 20.4641 23.1943 20.5407C23.1178 20.6139 23.0806 20.7386 23.0806 20.9125V21.3303H24.0617V20.9125C24.0617 20.7386 24.0212 20.615 23.9446 20.5407C23.8691 20.4641 23.7434 20.4269 23.575 20.4269Z" fill="white"/>
</g>
<defs>
<clipPath id="clip0_0_228">
<rect width="35" height="35" fill="white"/>
</clipPath>
</defs>
</svg>
